0
SECTION
2
HEADER
9
$INSUNITS
70
4
0
ENDSEC
0
SECTION
2
TABLES
0
TABLE
2
LTYPE
0
LTYPE
72
65
70
64
2
CONTINUOUS
3
______
73
0
40
0
0
ENDTAB
0
TABLE
2
LAYER
0
ENDTAB
0
ENDSEC
0
SECTION
2
ENTITIES
0
LINE
8
0
10
168.2341024
20
-163.8290906
11
47.3908597
21
-123.4076962
0
LINE
8
0
10
36.0841501
20
-49.3676976
11
41.959051
21
-116.5181223
0
LINE
8
0
10
36.1149617
20
-47.6823664
11
37.0215198
21
-40.3986495
0
LINE
8
0
10
44.7100306
20
-33.3906498
11
79.508848
21
-32.3016291
0
LINE
8
0
10
79.7590832
20
-32.2977145
11
100.4002002
21
-32.2977145
0
LINE
8
0
10
100.8672722
20
-32.3113609
11
162.3510076
21
-35.9071607
0
LINE
8
0
10
169.8839356
20
-43.8935143
11
169.8839356
21
-115.2521268
0
LINE
8
0
10
170.0819731
20
-117.0211324
11
178.5738138
21
-154.4732655
0
ARC
8
0
10
49.9286086
20
-115.8208767
40
8
50
184.9999976
51
251.5051985
0
ARC
8
0
10
44.0537077
20
-48.670452
40
8
50
172.905241
51
184.9999976
0
ARC
8
0
10
44.9602658
20
-41.3867352
40
8
50
91.7924699
51
172.905241
0
ARC
8
0
10
79.7590832
20
-40.2977145
40
8
50
90
51
91.7924699
0
ARC
8
0
10
100.4002002
20
-40.2977145
40
8
50
86.6529399
51
90
0
ARC
8
0
10
161.8839356
20
-43.8935143
40
8
50
0
51
86.6529399
0
ARC
8
0
10
177.8839356
20
-115.2521268
40
8
50
180
51
192.7751596
0
ARC
8
0
10
170.7718513
20
-156.2422711
40
8
50
251.5051985
51
12.7751596
0
ENDSEC
0
EOF