0
SECTION
2
HEADER
9
$INSUNITS
70
4
0
ENDSEC
0
SECTION
2
TABLES
0
TABLE
2
LTYPE
0
LTYPE
72
65
70
64
2
CONTINUOUS
3
______
73
0
40
0
0
ENDTAB
0
TABLE
2
LAYER
0
ENDTAB
0
ENDSEC
0
SECTION
2
ENTITIES
0
LINE
8
0
10
168.2341024
20
-163.8290906
11
47.3908597
21
-123.4076962
0
LINE
8
0
10
36.0841501
20
-49.3676976
11
41.959051
21
-116.5181223
0
LINE
8
0
10
36.1149617
20
-47.6823664
11
37.0215198
21
-40.3986495
0
LINE
8
0
10
44.7100306
20
-33.3906498
11
79.508848
21
-32.3016291
0
LINE
8
0
10
79.7590832
20
-32.2977145
11
100.4002002
21
-32.2977145
0
LINE
8
0
10
100.8672722
20
-32.3113609
11
162.3510076
21
-35.9071607
0
LINE
8
0
10
169.8839356
20
-43.8935143
11
169.8839356
21
-115.2521268
0
LINE
8
0
10
170.0819731
20
-117.0211324
11
178.5738138
21
-154.4732655
0
ARC
8
0
10
49.9286086
20
-115.8208767
40
8
50
184.9999976
51
251.5051985
0
ARC
8
0
10
44.0537077
20
-48.670452
40
8
50
172.905241
51
184.9999976
0
ARC
8
0
10
44.9602658
20
-41.3867352
40
8
50
91.7924699
51
172.905241
0
ARC
8
0
10
79.7590832
20
-40.2977145
40
8
50
90
51
91.7924699
0
ARC
8
0
10
100.4002002
20
-40.2977145
40
8
50
86.6529399
51
90
0
ARC
8
0
10
161.8839356
20
-43.8935143
40
8
50
0
51
86.6529399
0
ARC
8
0
10
177.8839356
20
-115.2521268
40
8
50
180
51
192.7751596
0
ARC
8
0
10
170.7718513
20
-156.2422711
40
8
50
251.5051985
51
12.7751596
0
LINE
8
0
10
41.5913897
20
-110.0209916
11
60.0209916
21
-108.4086103
0
LINE
8
0
10
60.0209916
20
-108.4086103
11
58.4086103
21
-89.9790084
0
LINE
8
0
10
58.4086103
20
-89.9790084
11
39.9790084
21
-91.5913897
0
LINE
8
0
10
39.9790084
20
-91.5913897
11
41.5913897
21
-110.0209916
0
LINE
8
0
10
39.7611191
20
-89.1009029
11
58.190721
21
-87.4885216
0
LINE
8
0
10
58.190721
20
-87.4885216
11
56.5783397
21
-69.0589197
0
LINE
8
0
10
56.5783397
20
-69.0589197
11
38.1487378
21
-70.671301
0
LINE
8
0
10
38.1487378
20
-70.671301
11
39.7611191
21
-89.1009029
0
LINE
8
0
10
37.9308485
20
-68.1808142
11
56.3604504
21
-66.5684329
0
LINE
8
0
10
56.3604504
20
-66.5684329
11
54.7480691
21
-48.138831
0
LINE
8
0
10
54.7480691
20
-48.138831
11
36.3184672
21
-49.7512123
0
LINE
8
0
10
36.3184672
20
-49.7512123
11
37.9308485
21
-68.1808142
0
LINE
8
0
10
60.3639356
20
-97.9977145
11
78.8639356
21
-97.9977145
0
LINE
8
0
10
78.8639356
20
-97.9977145
11
78.8639356
21
-79.4977145
0
LINE
8
0
10
78.8639356
20
-79.4977145
11
60.3639356
21
-79.4977145
0
LINE
8
0
10
60.3639356
20
-79.4977145
11
60.3639356
21
-97.9977145
0
LINE
8
0
10
60.3639356
20
-76.9977145
11
78.8639356
21
-76.9977145
0
LINE
8
0
10
78.8639356
20
-76.9977145
11
78.8639356
21
-58.4977145
0
LINE
8
0
10
78.8639356
20
-58.4977145
11
60.3639356
21
-58.4977145
0
LINE
8
0
10
60.3639356
20
-58.4977145
11
60.3639356
21
-76.9977145
0
LINE
8
0
10
60.3639356
20
-55.9977145
11
78.8639356
21
-55.9977145
0
LINE
8
0
10
78.8639356
20
-55.9977145
11
78.8639356
21
-37.4977145
0
LINE
8
0
10
78.8639356
20
-37.4977145
11
60.3639356
21
-37.4977145
0
LINE
8
0
10
60.3639356
20
-37.4977145
11
60.3639356
21
-55.9977145
0
LINE
8
0
10
80.8839356
20
-92.9977145
11
99.3839356
21
-92.9977145
0
LINE
8
0
10
99.3839356
20
-92.9977145
11
99.3839356
21
-74.4977145
0
LINE
8
0
10
99.3839356
20
-74.4977145
11
80.8839356
21
-74.4977145
0
LINE
8
0
10
80.8839356
20
-74.4977145
11
80.8839356
21
-92.9977145
0
LINE
8
0
10
80.8839356
20
-71.9977145
11
99.3839356
21
-71.9977145
0
LINE
8
0
10
99.3839356
20
-71.9977145
11
99.3839356
21
-53.4977145
0
LINE
8
0
10
99.3839356
20
-53.4977145
11
80.8839356
21
-53.4977145
0
LINE
8
0
10
80.8839356
20
-53.4977145
11
80.8839356
21
-71.9977145
0
LINE
8
0
10
80.8839356
20
-50.9977145
11
99.3839356
21
-50.9977145
0
LINE
8
0
10
99.3839356
20
-50.9977145
11
99.3839356
21
-32.4977145
0
LINE
8
0
10
99.3839356
20
-32.4977145
11
80.8839356
21
-32.4977145
0
LINE
8
0
10
80.8839356
20
-32.4977145
11
80.8839356
21
-50.9977145
0
LINE
8
0
10
101.8839356
20
-100.5977145
11
120.3839356
21
-100.5977145
0
LINE
8
0
10
120.3839356
20
-100.5977145
11
120.3839356
21
-82.0977145
0
LINE
8
0
10
120.3839356
20
-82.0977145
11
101.8839356
21
-82.0977145
0
LINE
8
0
10
101.8839356
20
-82.0977145
11
101.8839356
21
-100.5977145
0
LINE
8
0
10
101.8839356
20
-79.5977145
11
120.3839356
21
-79.5977145
0
LINE
8
0
10
120.3839356
20
-79.5977145
11
120.3839356
21
-61.0977145
0
LINE
8
0
10
120.3839356
20
-61.0977145
11
101.8839356
21
-61.0977145
0
LINE
8
0
10
101.8839356
20
-61.0977145
11
101.8839356
21
-79.5977145
0
LINE
8
0
10
101.8839356
20
-58.5977145
11
120.3839356
21
-58.5977145
0
LINE
8
0
10
120.3839356
20
-58.5977145
11
120.3839356
21
-40.0977145
0
LINE
8
0
10
120.3839356
20
-40.0977145
11
101.8839356
21
-40.0977145
0
LINE
8
0
10
101.8839356
20
-40.0977145
11
101.8839356
21
-58.5977145
0
LINE
8
0
10
122.8839356
20
-104.3977146
11
141.3839356
21
-104.3977146
0
LINE
8
0
10
141.3839356
20
-104.3977146
11
141.3839356
21
-85.8977146
0
LINE
8
0
10
141.3839356
20
-85.8977146
11
122.8839356
21
-85.8977146
0
LINE
8
0
10
122.8839356
20
-85.8977146
11
122.8839356
21
-104.3977146
0
LINE
8
0
10
122.8839356
20
-83.3977146
11
141.3839356
21
-83.3977146
0
LINE
8
0
10
141.3839356
20
-83.3977146
11
141.3839356
21
-64.8977146
0
LINE
8
0
10
141.3839356
20
-64.8977146
11
122.8839356
21
-64.8977146
0
LINE
8
0
10
122.8839356
20
-64.8977146
11
122.8839356
21
-83.3977146
0
LINE
8
0
10
122.8839356
20
-62.3977146
11
141.3839356
21
-62.3977146
0
LINE
8
0
10
141.3839356
20
-62.3977146
11
141.3839356
21
-43.8977146
0
LINE
8
0
10
141.3839356
20
-43.8977146
11
122.8839356
21
-43.8977146
0
LINE
8
0
10
122.8839356
20
-43.8977146
11
122.8839356
21
-62.3977146
0
LINE
8
0
10
111.3050455
20
-130.1884523
11
129.1746733
21
-134.9766047
0
LINE
8
0
10
129.1746733
20
-134.9766047
11
133.9628257
21
-117.1069769
0
LINE
8
0
10
133.9628257
20
-117.1069769
11
116.0931979
21
-112.3188245
0
LINE
8
0
10
116.0931979
20
-112.3188245
11
111.3050455
21
-130.1884523
0
LINE
8
0
10
146.8169196
20
-143.8230804
11
156.0669196
21
-127.8016104
0
LINE
8
0
10
156.0669196
20
-127.8016104
11
140.0454496
21
-118.5516104
0
LINE
8
0
10
140.0454496
20
-118.5516104
11
130.7954496
21
-134.5730804
0
LINE
8
0
10
130.7954496
20
-134.5730804
11
146.8169196
21
-143.8230804
0
LINE
8
0
10
147.8473642
20
-144.5805179
11
160.9288397
21
-157.6619934
0
LINE
8
0
10
160.9288397
20
-157.6619934
11
174.0103152
21
-144.5805179
0
LINE
8
0
10
174.0103152
20
-144.5805179
11
160.9288397
21
-131.4990424
0
LINE
8
0
10
160.9288397
20
-131.4990424
11
147.8473642
21
-144.5805179
0
ENDSEC
0
EOF