0
SECTION
2
HEADER
9
$INSUNITS
70
4
0
ENDSEC
0
SECTION
2
TABLES
0
TABLE
2
LTYPE
0
LTYPE
72
65
70
64
2
CONTINUOUS
3
______
73
0
40
0
0
ENDTAB
0
TABLE
2
LAYER
0
ENDTAB
0
ENDSEC
0
SECTION
2
ENTITIES
0
LINE
8
0
10
103.7333476
20
-114.5507792
11
45.1976457
21
-112.3967885
0
LINE
8
0
10
26.1329934
20
-63.663982
11
43.3918065
21
-111.0821814
0
LINE
8
0
10
26.5168566
20
-61.6520057
11
45.910471
21
-39.8109128
0
LINE
8
0
10
46.6368936
20
-39.2926402
11
71.5233991
21
-28.9253408
0
LINE
8
0
10
72.2924985
20
-28.7715494
11
91.7757309
21
-28.7715494
0
LINE
8
0
10
92.0086185
20
-28.7851548
11
148.1254601
21
-35.3643707
0
LINE
8
0
10
149.8925725
20
-37.3507653
11
149.8925725
21
-98.2021471
0
LINE
8
0
10
150.4674898
20
-99.6054074
11
170.4884821
21
-119.9377503
0
LINE
8
0
10
170.477613
20
-122.7552242
11
152.079629
21
-141.1532082
0
LINE
8
0
10
149.253544
20
-141.1555464
11
134.8061199
21
-126.755858
0
LINE
8
0
10
134.3942485
20
-126.440359
11
123.5771665
21
-120.1951138
0
LINE
8
0
10
123.1240487
20
-120.0033871
11
104.2066839
21
-114.625649
0
ARC
8
0
10
45.2711917
20
-110.3981412
40
2
50
199.9999981
51
267.8925871
0
ARC
8
0
10
28.0123786
20
-62.9799417
40
2
50
138.3967987
51
199.9999981
0
ARC
8
0
10
47.405993
20
-41.1388488
40
2
50
112.6157877
51
138.3967987
0
ARC
8
0
10
72.2924985
20
-30.7715494
40
2
50
90
51
112.6157877
0
ARC
8
0
10
91.7757309
20
-30.7715494
40
2
50
83.3130919
51
90
0
ARC
8
0
10
147.8925725
20
-37.3507653
40
2
50
0
51
83.3130919
0
ARC
8
0
10
151.8925725
20
-98.2021471
40
2
50
180
51
224.5579367
0
ARC
8
0
10
169.0633994
20
-121.3410106
40
2
50
315
51
44.5579367
0
ARC
8
0
10
150.6654154
20
-139.7389946
40
2
50
225.0948115
51
315
0
ARC
8
0
10
133.3942485
20
-128.1724098
40
2
50
45.0948115
51
59.9999999
0
ARC
8
0
10
122.5771665
20
-121.9271646
40
2
50
59.9999999
51
74.1308638
0
ARC
8
0
10
103.6598016
20
-116.5494265
40
2
50
74.1308638
51
87.8925871
0
LINE
8
0
10
44.5993558
20
-110.7451404
11
61.0439766
21
-104.7597879
0
LINE
8
0
10
61.0439766
20
-104.7597879
11
55.4006442
21
-89.2548596
0
LINE
8
0
10
55.4006442
20
-89.2548596
11
38.9560234
21
-95.2402121
0
LINE
8
0
10
38.9560234
20
-95.2402121
11
44.5993558
21
-110.7451404
0
LINE
8
0
10
38.7850134
20
-94.7703658
11
55.2296342
21
-88.7850133
0
LINE
8
0
10
55.2296342
20
-88.7850133
11
49.5863018
21
-73.280085
0
LINE
8
0
10
49.5863018
20
-73.280085
11
33.141681
21
-79.2654375
0
LINE
8
0
10
33.141681
20
-79.2654375
11
38.7850134
21
-94.7703658
0
LINE
8
0
10
32.970671
20
-78.7955912
11
49.4152918
21
-72.8102387
0
LINE
8
0
10
49.4152918
20
-72.8102387
11
43.7719594
21
-57.3053104
0
LINE
8
0
10
43.7719594
20
-57.3053104
11
27.3273386
21
-63.2906629
0
LINE
8
0
10
27.3273386
20
-63.2906629
11
32.970671
21
-78.7955912
0
LINE
8
0
10
56.4316802
20
-90.2153943
11
73.6658159
21
-87.1765512
0
LINE
8
0
10
73.6658159
20
-87.1765512
11
70.800621
21
-70.9272233
0
LINE
8
0
10
70.800621
20
-70.9272233
11
53.5664853
21
-73.9660664
0
LINE
8
0
10
53.5664853
20
-73.9660664
11
56.4316802
21
-90.2153943
0
LINE
8
0
10
53.4796612
20
-73.4736625
11
70.7137969
21
-70.4348194
0
LINE
8
0
10
70.7137969
20
-70.4348194
11
67.848602
21
-54.1854915
0
LINE
8
0
10
67.848602
20
-54.1854915
11
50.6144663
21
-57.2243346
0
LINE
8
0
10
50.6144663
20
-57.2243346
11
53.4796612
21
-73.4736625
0
LINE
8
0
10
50.5276422
20
-56.7319307
11
67.7617779
21
-53.6930876
0
LINE
8
0
10
67.7617779
20
-53.6930876
11
64.896583
21
-37.4437597
0
LINE
8
0
10
64.896583
20
-37.4437597
11
47.6624473
21
-40.4826028
0
LINE
8
0
10
47.6624473
20
-40.4826028
11
50.5276422
21
-56.7319307
0
LINE
8
0
10
73.1425724
20
-80.5215494
11
90.6425724
21
-80.5215494
0
LINE
8
0
10
90.6425724
20
-80.5215494
11
90.6425724
21
-64.0215494
0
LINE
8
0
10
90.6425724
20
-64.0215494
11
73.1425724
21
-64.0215494
0
LINE
8
0
10
73.1425724
20
-64.0215494
11
73.1425724
21
-80.5215494
0
LINE
8
0
10
73.1425724
20
-63.5215494
11
90.6425724
21
-63.5215494
0
LINE
8
0
10
90.6425724
20
-63.5215494
11
90.6425724
21
-47.0215494
0
LINE
8
0
10
90.6425724
20
-47.0215494
11
73.1425724
21
-47.0215494
0
LINE
8
0
10
73.1425724
20
-47.0215494
11
73.1425724
21
-63.5215494
0
LINE
8
0
10
73.1425724
20
-46.5215494
11
90.6425724
21
-46.5215494
0
LINE
8
0
10
90.6425724
20
-46.5215494
11
90.6425724
21
-30.0215494
0
LINE
8
0
10
90.6425724
20
-30.0215494
11
73.1425724
21
-30.0215494
0
LINE
8
0
10
73.1425724
20
-30.0215494
11
73.1425724
21
-46.5215494
0
LINE
8
0
10
91.1425724
20
-87.3215494
11
108.6425724
21
-87.3215494
0
LINE
8
0
10
108.6425724
20
-87.3215494
11
108.6425724
21
-70.8215494
0
LINE
8
0
10
108.6425724
20
-70.8215494
11
91.1425724
21
-70.8215494
0
LINE
8
0
10
91.1425724
20
-70.8215494
11
91.1425724
21
-87.3215494
0
LINE
8
0
10
91.1425724
20
-70.3215494
11
108.6425724
21
-70.3215494
0
LINE
8
0
10
108.6425724
20
-70.3215494
11
108.6425724
21
-53.8215494
0
LINE
8
0
10
108.6425724
20
-53.8215494
11
91.1425724
21
-53.8215494
0
LINE
8
0
10
91.1425724
20
-53.8215494
11
91.1425724
21
-70.3215494
0
LINE
8
0
10
91.1425724
20
-53.3215494
11
108.6425724
21
-53.3215494
0
LINE
8
0
10
108.6425724
20
-53.3215494
11
108.6425724
21
-36.8215494
0
LINE
8
0
10
108.6425724
20
-36.8215494
11
91.1425724
21
-36.8215494
0
LINE
8
0
10
91.1425724
20
-36.8215494
11
91.1425724
21
-53.3215494
0
LINE
8
0
10
109.1425725
20
-87.3215494
11
126.6425725
21
-87.3215494
0
LINE
8
0
10
126.6425725
20
-87.3215494
11
126.6425725
21
-70.8215494
0
LINE
8
0
10
126.6425725
20
-70.8215494
11
109.1425725
21
-70.8215494
0
LINE
8
0
10
109.1425725
20
-70.8215494
11
109.1425725
21
-87.3215494
0
LINE
8
0
10
109.1425725
20
-70.3215494
11
126.6425725
21
-70.3215494
0
LINE
8
0
10
126.6425725
20
-70.3215494
11
126.6425725
21
-53.8215494
0
LINE
8
0
10
126.6425725
20
-53.8215494
11
109.1425725
21
-53.8215494
0
LINE
8
0
10
109.1425725
20
-53.8215494
11
109.1425725
21
-70.3215494
0
LINE
8
0
10
109.1425725
20
-53.3215494
11
126.6425725
21
-53.3215494
0
LINE
8
0
10
126.6425725
20
-53.3215494
11
126.6425725
21
-36.8215494
0
LINE
8
0
10
126.6425725
20
-36.8215494
11
109.1425725
21
-36.8215494
0
LINE
8
0
10
109.1425725
20
-36.8215494
11
109.1425725
21
-53.3215494
0
LINE
8
0
10
105.5054644
20
-113.6757708
11
122.4091664
21
-118.2051041
0
LINE
8
0
10
122.4091664
20
-118.2051041
11
126.6796806
21
-102.267328
0
LINE
8
0
10
126.6796806
20
-102.267328
11
109.7759786
21
-97.7379947
0
LINE
8
0
10
109.7759786
20
-97.7379947
11
105.5054644
21
-113.6757708
0
LINE
8
0
10
123.3379701
20
-118.6136381
11
138.4934147
21
-127.3636381
0
LINE
8
0
10
138.4934147
20
-127.3636381
11
146.7434147
21
-113.0742189
0
LINE
8
0
10
146.7434147
20
-113.0742189
11
131.5879701
21
-104.3242189
0
LINE
8
0
10
131.5879701
20
-104.3242189
11
123.3379701
21
-118.6136381
0
LINE
8
0
10
154.2032877
20
-137.2617826
11
166.5776564
21
-124.8874139
0
LINE
8
0
10
166.5776564
20
-124.8874139
11
154.9103945
21
-113.220152
0
LINE
8
0
10
154.9103945
20
-113.220152
11
142.5360258
21
-125.5945207
0
LINE
8
0
10
142.5360258
20
-125.5945207
11
154.2032877
21
-137.2617826
0
ENDSEC
0
EOF