0
SECTION
2
HEADER
9
$INSUNITS
70
4
0
ENDSEC
0
SECTION
2
TABLES
0
TABLE
2
LTYPE
0
LTYPE
72
65
70
64
2
CONTINUOUS
3
______
73
0
40
0
0
ENDTAB
0
TABLE
2
LAYER
0
ENDTAB
0
ENDSEC
0
SECTION
2
ENTITIES
0
LINE
8
0
10
90.5871613
20
-112.6424977
11
44.259837
21
-113.3623341
0
LINE
8
0
10
25.5416873
20
-60.3218012
11
42.3266516
21
-111.9806095
0
LINE
8
0
10
26.0092421
20
-58.3101953
11
46.9567018
21
-36.7466539
0
LINE
8
0
10
47.6753043
20
-36.2727656
11
72.1940203
21
-26.8726669
0
LINE
8
0
10
72.9099759
20
-26.7401271
11
94.4228886
21
-26.7401271
0
LINE
8
0
10
94.6557762
20
-26.7537325
11
150.9713109
21
-33.3562435
0
LINE
8
0
10
152.7246618
20
-35.1084231
11
160.77044
21
-103.3399051
0
LINE
8
0
10
160.5162523
20
-104.5741201
11
145.3562298
21
-130.8320494
0
LINE
8
0
10
142.6103301
20
-131.5560303
11
129.7268923
21
-123.9794612
0
LINE
8
0
10
129.4992691
20
-123.8644617
11
109.4288813
21
-115.2836979
0
LINE
8
0
10
108.9153149
20
-115.1413513
11
90.8908931
21
-112.6609293
0
ARC
8
0
10
44.2287646
20
-111.3625755
40
2
50
198.0000006
51
270.8901945
0
ARC
8
0
10
27.4438003
20
-59.7037672
40
2
50
135.8302913
51
198.0000006
0
ARC
8
0
10
48.3912599
20
-38.1402258
40
2
50
110.9760576
51
135.8302913
0
ARC
8
0
10
72.9099759
20
-28.7401271
40
2
50
90
51
110.9760576
0
ARC
8
0
10
94.4228886
20
-28.7401271
40
2
50
83.3130919
51
90
0
ARC
8
0
10
150.7384233
20
-35.3426381
40
2
50
6.7251977
51
83.3130919
0
ARC
8
0
10
158.7842015
20
-103.5741201
40
2
50
329.9999999
51
6.7251977
0
ARC
8
0
10
143.624179
20
-129.8320494
40
2
50
239.5408127
51
329.9999999
0
ARC
8
0
10
128.7130433
20
-125.7034421
40
2
50
59.5408127
51
66.8516674
0
ARC
8
0
10
108.6426555
20
-117.1226783
40
2
50
66.8516674
51
82.1644828
0
ARC
8
0
10
90.6182337
20
-114.6422563
40
2
50
82.1644828
51
90.8901945
0
LINE
8
0
10
44.0671358
20
-110.8651333
11
61.1861531
21
-105.3028274
0
LINE
8
0
10
61.1861531
20
-105.3028274
11
55.9328642
21
-89.1348667
0
LINE
8
0
10
55.9328642
20
-89.1348667
11
38.8138469
21
-94.6971726
0
LINE
8
0
10
38.8138469
20
-94.6971726
11
44.0671358
21
-110.8651333
0
LINE
8
0
10
38.5048299
20
-93.746116
11
55.6238472
21
-88.1838101
0
LINE
8
0
10
55.6238472
20
-88.1838101
11
50.3705583
21
-72.0158494
0
LINE
8
0
10
50.3705583
20
-72.0158494
11
33.251541
21
-77.5781553
0
LINE
8
0
10
33.251541
20
-77.5781553
11
38.5048299
21
-93.746116
0
LINE
8
0
10
32.942524
20
-76.6270987
11
50.0615413
21
-71.0647928
0
LINE
8
0
10
50.0615413
20
-71.0647928
11
44.8082524
21
-54.8968321
0
LINE
8
0
10
44.8082524
20
-54.8968321
11
27.6892351
21
-60.459138
0
LINE
8
0
10
27.6892351
20
-60.459138
11
32.942524
21
-76.6270987
0
LINE
8
0
10
56.8988466
20
-90.6169314
11
74.7236719
21
-88.1118156
0
LINE
8
0
10
74.7236719
20
-88.1118156
11
72.3577292
21
-71.2772584
0
LINE
8
0
10
72.3577292
20
-71.2772584
11
54.5329039
21
-73.7823742
0
LINE
8
0
10
54.5329039
20
-73.7823742
11
56.8988466
21
-90.6169314
0
LINE
8
0
10
54.3937308
20
-72.7921062
11
72.2185561
21
-70.2869904
0
LINE
8
0
10
72.2185561
20
-70.2869904
11
69.8526134
21
-53.4524332
0
LINE
8
0
10
69.8526134
20
-53.4524332
11
52.0277881
21
-55.957549
0
LINE
8
0
10
52.0277881
20
-55.957549
11
54.3937308
21
-72.7921062
0
LINE
8
0
10
51.888615
20
-54.967281
11
69.7134403
21
-52.4621652
0
LINE
8
0
10
69.7134403
20
-52.4621652
11
67.3474976
21
-35.627608
0
LINE
8
0
10
67.3474976
20
-35.627608
11
49.5226723
21
-38.1327238
0
LINE
8
0
10
49.5226723
20
-38.1327238
11
51.888615
21
-54.967281
0
LINE
8
0
10
74.5397301
20
-81.7401271
11
92.5397301
21
-81.7401271
0
LINE
8
0
10
92.5397301
20
-81.7401271
11
92.5397301
21
-64.7401271
0
LINE
8
0
10
92.5397301
20
-64.7401271
11
74.5397301
21
-64.7401271
0
LINE
8
0
10
74.5397301
20
-64.7401271
11
74.5397301
21
-81.7401271
0
LINE
8
0
10
74.5397301
20
-63.7401271
11
92.5397301
21
-63.7401271
0
LINE
8
0
10
92.5397301
20
-63.7401271
11
92.5397301
21
-46.7401271
0
LINE
8
0
10
92.5397301
20
-46.7401271
11
74.5397301
21
-46.7401271
0
LINE
8
0
10
74.5397301
20
-46.7401271
11
74.5397301
21
-63.7401271
0
LINE
8
0
10
74.5397301
20
-45.7401271
11
92.5397301
21
-45.7401271
0
LINE
8
0
10
92.5397301
20
-45.7401271
11
92.5397301
21
-28.7401271
0
LINE
8
0
10
92.5397301
20
-28.7401271
11
74.5397301
21
-28.7401271
0
LINE
8
0
10
74.5397301
20
-28.7401271
11
74.5397301
21
-45.7401271
0
LINE
8
0
10
93.5397301
20
-88.5401272
11
111.5397301
21
-88.5401272
0
LINE
8
0
10
111.5397301
20
-88.5401272
11
111.5397301
21
-71.5401272
0
LINE
8
0
10
111.5397301
20
-71.5401272
11
93.5397301
21
-71.5401272
0
LINE
8
0
10
93.5397301
20
-71.5401272
11
93.5397301
21
-88.5401272
0
LINE
8
0
10
93.5397301
20
-70.5401272
11
111.5397301
21
-70.5401272
0
LINE
8
0
10
111.5397301
20
-70.5401272
11
111.5397301
21
-53.5401272
0
LINE
8
0
10
111.5397301
20
-53.5401272
11
93.5397301
21
-53.5401272
0
LINE
8
0
10
93.5397301
20
-53.5401272
11
93.5397301
21
-70.5401272
0
LINE
8
0
10
93.5397301
20
-52.5401272
11
111.5397301
21
-52.5401272
0
LINE
8
0
10
111.5397301
20
-52.5401272
11
111.5397301
21
-35.5401272
0
LINE
8
0
10
111.5397301
20
-35.5401272
11
93.5397301
21
-35.5401272
0
LINE
8
0
10
93.5397301
20
-35.5401272
11
93.5397301
21
-52.5401272
0
LINE
8
0
10
112.5397301
20
-88.5401271
11
130.5397301
21
-88.5401271
0
LINE
8
0
10
130.5397301
20
-88.5401271
11
130.5397301
21
-71.5401271
0
LINE
8
0
10
130.5397301
20
-71.5401271
11
112.5397301
21
-71.5401271
0
LINE
8
0
10
112.5397301
20
-71.5401271
11
112.5397301
21
-88.5401271
0
LINE
8
0
10
112.5397301
20
-70.5401271
11
130.5397301
21
-70.5401271
0
LINE
8
0
10
130.5397301
20
-70.5401271
11
130.5397301
21
-53.5401271
0
LINE
8
0
10
130.5397301
20
-53.5401271
11
112.5397301
21
-53.5401271
0
LINE
8
0
10
112.5397301
20
-53.5401271
11
112.5397301
21
-70.5401271
0
LINE
8
0
10
112.5397301
20
-52.5401271
11
130.5397301
21
-52.5401271
0
LINE
8
0
10
130.5397301
20
-52.5401271
11
130.5397301
21
-35.5401271
0
LINE
8
0
10
130.5397301
20
-35.5401271
11
112.5397301
21
-35.5401271
0
LINE
8
0
10
112.5397301
20
-35.5401271
11
112.5397301
21
-52.5401271
0
LINE
8
0
10
92.7397301
20
-110.6401271
11
110.7397301
21
-110.6401271
0
LINE
8
0
10
110.7397301
20
-110.6401271
11
110.7397301
21
-93.6401271
0
LINE
8
0
10
110.7397301
20
-93.6401271
11
92.7397301
21
-93.6401271
0
LINE
8
0
10
92.7397301
20
-93.6401271
11
92.7397301
21
-110.6401271
0
LINE
8
0
10
112.4464358
20
-110.7211252
11
129.8331007
21
-115.379868
0
LINE
8
0
10
129.8331007
20
-115.379868
11
134.2330244
21
-98.959129
0
LINE
8
0
10
134.2330244
20
-98.959129
11
116.8463595
21
-94.3003862
0
LINE
8
0
10
116.8463595
20
-94.3003862
11
112.4464358
21
-110.7211252
0
LINE
8
0
10
146.3661324
20
-125.0828468
11
155.3661324
21
-109.4943896
0
LINE
8
0
10
155.3661324
20
-109.4943896
11
140.6437006
21
-100.9943896
0
LINE
8
0
10
140.6437006
20
-100.9943896
11
131.6437006
21
-116.5828468
0
LINE
8
0
10
131.6437006
20
-116.5828468
11
146.3661324
21
-125.0828468
0
ENDSEC
0
EOF