0
SECTION
2
HEADER
9
$INSUNITS
70
4
0
ENDSEC
0
SECTION
2
TABLES
0
TABLE
2
LTYPE
0
LTYPE
72
65
70
64
2
CONTINUOUS
3
______
73
0
40
0
0
ENDTAB
0
TABLE
2
LAYER
0
ENDTAB
0
ENDSEC
0
SECTION
2
ENTITIES
0
LINE
8
0
10
44.5993558
20
-110.7451404
11
61.0439766
21
-104.7597879
0
LINE
8
0
10
61.0439766
20
-104.7597879
11
55.4006442
21
-89.2548596
0
LINE
8
0
10
55.4006442
20
-89.2548596
11
38.9560234
21
-95.2402121
0
LINE
8
0
10
38.9560234
20
-95.2402121
11
44.5993558
21
-110.7451404
0
LINE
8
0
10
38.7850134
20
-94.7703658
11
55.2296342
21
-88.7850133
0
LINE
8
0
10
55.2296342
20
-88.7850133
11
49.5863018
21
-73.280085
0
LINE
8
0
10
49.5863018
20
-73.280085
11
33.141681
21
-79.2654375
0
LINE
8
0
10
33.141681
20
-79.2654375
11
38.7850134
21
-94.7703658
0
LINE
8
0
10
32.970671
20
-78.7955912
11
49.4152918
21
-72.8102387
0
LINE
8
0
10
49.4152918
20
-72.8102387
11
43.7719594
21
-57.3053104
0
LINE
8
0
10
43.7719594
20
-57.3053104
11
27.3273386
21
-63.2906629
0
LINE
8
0
10
27.3273386
20
-63.2906629
11
32.970671
21
-78.7955912
0
LINE
8
0
10
56.4316802
20
-90.2153943
11
73.6658159
21
-87.1765512
0
LINE
8
0
10
73.6658159
20
-87.1765512
11
70.800621
21
-70.9272233
0
LINE
8
0
10
70.800621
20
-70.9272233
11
53.5664853
21
-73.9660664
0
LINE
8
0
10
53.5664853
20
-73.9660664
11
56.4316802
21
-90.2153943
0
LINE
8
0
10
53.4796612
20
-73.4736625
11
70.7137969
21
-70.4348194
0
LINE
8
0
10
70.7137969
20
-70.4348194
11
67.848602
21
-54.1854915
0
LINE
8
0
10
67.848602
20
-54.1854915
11
50.6144663
21
-57.2243346
0
LINE
8
0
10
50.6144663
20
-57.2243346
11
53.4796612
21
-73.4736625
0
LINE
8
0
10
50.5276422
20
-56.7319307
11
67.7617779
21
-53.6930876
0
LINE
8
0
10
67.7617779
20
-53.6930876
11
64.896583
21
-37.4437597
0
LINE
8
0
10
64.896583
20
-37.4437597
11
47.6624473
21
-40.4826028
0
LINE
8
0
10
47.6624473
20
-40.4826028
11
50.5276422
21
-56.7319307
0
LINE
8
0
10
73.1425724
20
-80.5215494
11
90.6425724
21
-80.5215494
0
LINE
8
0
10
90.6425724
20
-80.5215494
11
90.6425724
21
-64.0215494
0
LINE
8
0
10
90.6425724
20
-64.0215494
11
73.1425724
21
-64.0215494
0
LINE
8
0
10
73.1425724
20
-64.0215494
11
73.1425724
21
-80.5215494
0
LINE
8
0
10
73.1425724
20
-63.5215494
11
90.6425724
21
-63.5215494
0
LINE
8
0
10
90.6425724
20
-63.5215494
11
90.6425724
21
-47.0215494
0
LINE
8
0
10
90.6425724
20
-47.0215494
11
73.1425724
21
-47.0215494
0
LINE
8
0
10
73.1425724
20
-47.0215494
11
73.1425724
21
-63.5215494
0
LINE
8
0
10
73.1425724
20
-46.5215494
11
90.6425724
21
-46.5215494
0
LINE
8
0
10
90.6425724
20
-46.5215494
11
90.6425724
21
-30.0215494
0
LINE
8
0
10
90.6425724
20
-30.0215494
11
73.1425724
21
-30.0215494
0
LINE
8
0
10
73.1425724
20
-30.0215494
11
73.1425724
21
-46.5215494
0
LINE
8
0
10
91.1425724
20
-87.3215494
11
108.6425724
21
-87.3215494
0
LINE
8
0
10
108.6425724
20
-87.3215494
11
108.6425724
21
-70.8215494
0
LINE
8
0
10
108.6425724
20
-70.8215494
11
91.1425724
21
-70.8215494
0
LINE
8
0
10
91.1425724
20
-70.8215494
11
91.1425724
21
-87.3215494
0
LINE
8
0
10
91.1425724
20
-70.3215494
11
108.6425724
21
-70.3215494
0
LINE
8
0
10
108.6425724
20
-70.3215494
11
108.6425724
21
-53.8215494
0
LINE
8
0
10
108.6425724
20
-53.8215494
11
91.1425724
21
-53.8215494
0
LINE
8
0
10
91.1425724
20
-53.8215494
11
91.1425724
21
-70.3215494
0
LINE
8
0
10
91.1425724
20
-53.3215494
11
108.6425724
21
-53.3215494
0
LINE
8
0
10
108.6425724
20
-53.3215494
11
108.6425724
21
-36.8215494
0
LINE
8
0
10
108.6425724
20
-36.8215494
11
91.1425724
21
-36.8215494
0
LINE
8
0
10
91.1425724
20
-36.8215494
11
91.1425724
21
-53.3215494
0
LINE
8
0
10
109.1425725
20
-87.3215494
11
126.6425725
21
-87.3215494
0
LINE
8
0
10
126.6425725
20
-87.3215494
11
126.6425725
21
-70.8215494
0
LINE
8
0
10
126.6425725
20
-70.8215494
11
109.1425725
21
-70.8215494
0
LINE
8
0
10
109.1425725
20
-70.8215494
11
109.1425725
21
-87.3215494
0
LINE
8
0
10
109.1425725
20
-70.3215494
11
126.6425725
21
-70.3215494
0
LINE
8
0
10
126.6425725
20
-70.3215494
11
126.6425725
21
-53.8215494
0
LINE
8
0
10
126.6425725
20
-53.8215494
11
109.1425725
21
-53.8215494
0
LINE
8
0
10
109.1425725
20
-53.8215494
11
109.1425725
21
-70.3215494
0
LINE
8
0
10
109.1425725
20
-53.3215494
11
126.6425725
21
-53.3215494
0
LINE
8
0
10
126.6425725
20
-53.3215494
11
126.6425725
21
-36.8215494
0
LINE
8
0
10
126.6425725
20
-36.8215494
11
109.1425725
21
-36.8215494
0
LINE
8
0
10
109.1425725
20
-36.8215494
11
109.1425725
21
-53.3215494
0
LINE
8
0
10
105.5054644
20
-113.6757708
11
122.4091664
21
-118.2051041
0
LINE
8
0
10
122.4091664
20
-118.2051041
11
126.6796806
21
-102.267328
0
LINE
8
0
10
126.6796806
20
-102.267328
11
109.7759786
21
-97.7379947
0
LINE
8
0
10
109.7759786
20
-97.7379947
11
105.5054644
21
-113.6757708
0
LINE
8
0
10
123.3379701
20
-118.6136381
11
138.4934147
21
-127.3636381
0
LINE
8
0
10
138.4934147
20
-127.3636381
11
146.7434147
21
-113.0742189
0
LINE
8
0
10
146.7434147
20
-113.0742189
11
131.5879701
21
-104.3242189
0
LINE
8
0
10
131.5879701
20
-104.3242189
11
123.3379701
21
-118.6136381
0
LINE
8
0
10
154.2032877
20
-137.2617826
11
166.5776564
21
-124.8874139
0
LINE
8
0
10
166.5776564
20
-124.8874139
11
154.9103945
21
-113.220152
0
LINE
8
0
10
154.9103945
20
-113.220152
11
142.5360258
21
-125.5945207
0
LINE
8
0
10
142.5360258
20
-125.5945207
11
154.2032877
21
-137.2617826
0
ENDSEC
0
EOF