0
SECTION
2
HEADER
9
$INSUNITS
70
4
0
ENDSEC
0
SECTION
2
TABLES
0
TABLE
2
LTYPE
0
LTYPE
72
65
70
64
2
CONTINUOUS
3
______
73
0
40
0
0
ENDTAB
0
TABLE
2
LAYER
0
ENDTAB
0
ENDSEC
0
SECTION
2
ENTITIES
0
LINE
8
0
10
44.0671358
20
-110.8651333
11
61.1861531
21
-105.3028274
0
LINE
8
0
10
61.1861531
20
-105.3028274
11
55.9328642
21
-89.1348667
0
LINE
8
0
10
55.9328642
20
-89.1348667
11
38.8138469
21
-94.6971726
0
LINE
8
0
10
38.8138469
20
-94.6971726
11
44.0671358
21
-110.8651333
0
LINE
8
0
10
38.5048299
20
-93.746116
11
55.6238472
21
-88.1838101
0
LINE
8
0
10
55.6238472
20
-88.1838101
11
50.3705583
21
-72.0158494
0
LINE
8
0
10
50.3705583
20
-72.0158494
11
33.251541
21
-77.5781553
0
LINE
8
0
10
33.251541
20
-77.5781553
11
38.5048299
21
-93.746116
0
LINE
8
0
10
32.942524
20
-76.6270987
11
50.0615413
21
-71.0647928
0
LINE
8
0
10
50.0615413
20
-71.0647928
11
44.8082524
21
-54.8968321
0
LINE
8
0
10
44.8082524
20
-54.8968321
11
27.6892351
21
-60.459138
0
LINE
8
0
10
27.6892351
20
-60.459138
11
32.942524
21
-76.6270987
0
LINE
8
0
10
56.8988466
20
-90.6169314
11
74.7236719
21
-88.1118156
0
LINE
8
0
10
74.7236719
20
-88.1118156
11
72.3577292
21
-71.2772584
0
LINE
8
0
10
72.3577292
20
-71.2772584
11
54.5329039
21
-73.7823742
0
LINE
8
0
10
54.5329039
20
-73.7823742
11
56.8988466
21
-90.6169314
0
LINE
8
0
10
54.3937308
20
-72.7921062
11
72.2185561
21
-70.2869904
0
LINE
8
0
10
72.2185561
20
-70.2869904
11
69.8526134
21
-53.4524332
0
LINE
8
0
10
69.8526134
20
-53.4524332
11
52.0277881
21
-55.957549
0
LINE
8
0
10
52.0277881
20
-55.957549
11
54.3937308
21
-72.7921062
0
LINE
8
0
10
51.888615
20
-54.967281
11
69.7134403
21
-52.4621652
0
LINE
8
0
10
69.7134403
20
-52.4621652
11
67.3474976
21
-35.627608
0
LINE
8
0
10
67.3474976
20
-35.627608
11
49.5226723
21
-38.1327238
0
LINE
8
0
10
49.5226723
20
-38.1327238
11
51.888615
21
-54.967281
0
LINE
8
0
10
74.5397301
20
-81.7401271
11
92.5397301
21
-81.7401271
0
LINE
8
0
10
92.5397301
20
-81.7401271
11
92.5397301
21
-64.7401271
0
LINE
8
0
10
92.5397301
20
-64.7401271
11
74.5397301
21
-64.7401271
0
LINE
8
0
10
74.5397301
20
-64.7401271
11
74.5397301
21
-81.7401271
0
LINE
8
0
10
74.5397301
20
-63.7401271
11
92.5397301
21
-63.7401271
0
LINE
8
0
10
92.5397301
20
-63.7401271
11
92.5397301
21
-46.7401271
0
LINE
8
0
10
92.5397301
20
-46.7401271
11
74.5397301
21
-46.7401271
0
LINE
8
0
10
74.5397301
20
-46.7401271
11
74.5397301
21
-63.7401271
0
LINE
8
0
10
74.5397301
20
-45.7401271
11
92.5397301
21
-45.7401271
0
LINE
8
0
10
92.5397301
20
-45.7401271
11
92.5397301
21
-28.7401271
0
LINE
8
0
10
92.5397301
20
-28.7401271
11
74.5397301
21
-28.7401271
0
LINE
8
0
10
74.5397301
20
-28.7401271
11
74.5397301
21
-45.7401271
0
LINE
8
0
10
93.5397301
20
-88.5401272
11
111.5397301
21
-88.5401272
0
LINE
8
0
10
111.5397301
20
-88.5401272
11
111.5397301
21
-71.5401272
0
LINE
8
0
10
111.5397301
20
-71.5401272
11
93.5397301
21
-71.5401272
0
LINE
8
0
10
93.5397301
20
-71.5401272
11
93.5397301
21
-88.5401272
0
LINE
8
0
10
93.5397301
20
-70.5401272
11
111.5397301
21
-70.5401272
0
LINE
8
0
10
111.5397301
20
-70.5401272
11
111.5397301
21
-53.5401272
0
LINE
8
0
10
111.5397301
20
-53.5401272
11
93.5397301
21
-53.5401272
0
LINE
8
0
10
93.5397301
20
-53.5401272
11
93.5397301
21
-70.5401272
0
LINE
8
0
10
93.5397301
20
-52.5401272
11
111.5397301
21
-52.5401272
0
LINE
8
0
10
111.5397301
20
-52.5401272
11
111.5397301
21
-35.5401272
0
LINE
8
0
10
111.5397301
20
-35.5401272
11
93.5397301
21
-35.5401272
0
LINE
8
0
10
93.5397301
20
-35.5401272
11
93.5397301
21
-52.5401272
0
LINE
8
0
10
112.5397301
20
-88.5401271
11
130.5397301
21
-88.5401271
0
LINE
8
0
10
130.5397301
20
-88.5401271
11
130.5397301
21
-71.5401271
0
LINE
8
0
10
130.5397301
20
-71.5401271
11
112.5397301
21
-71.5401271
0
LINE
8
0
10
112.5397301
20
-71.5401271
11
112.5397301
21
-88.5401271
0
LINE
8
0
10
112.5397301
20
-70.5401271
11
130.5397301
21
-70.5401271
0
LINE
8
0
10
130.5397301
20
-70.5401271
11
130.5397301
21
-53.5401271
0
LINE
8
0
10
130.5397301
20
-53.5401271
11
112.5397301
21
-53.5401271
0
LINE
8
0
10
112.5397301
20
-53.5401271
11
112.5397301
21
-70.5401271
0
LINE
8
0
10
112.5397301
20
-52.5401271
11
130.5397301
21
-52.5401271
0
LINE
8
0
10
130.5397301
20
-52.5401271
11
130.5397301
21
-35.5401271
0
LINE
8
0
10
130.5397301
20
-35.5401271
11
112.5397301
21
-35.5401271
0
LINE
8
0
10
112.5397301
20
-35.5401271
11
112.5397301
21
-52.5401271
0
LINE
8
0
10
92.7397301
20
-110.6401271
11
110.7397301
21
-110.6401271
0
LINE
8
0
10
110.7397301
20
-110.6401271
11
110.7397301
21
-93.6401271
0
LINE
8
0
10
110.7397301
20
-93.6401271
11
92.7397301
21
-93.6401271
0
LINE
8
0
10
92.7397301
20
-93.6401271
11
92.7397301
21
-110.6401271
0
LINE
8
0
10
112.4464358
20
-110.7211252
11
129.8331007
21
-115.379868
0
LINE
8
0
10
129.8331007
20
-115.379868
11
134.2330244
21
-98.959129
0
LINE
8
0
10
134.2330244
20
-98.959129
11
116.8463595
21
-94.3003862
0
LINE
8
0
10
116.8463595
20
-94.3003862
11
112.4464358
21
-110.7211252
0
LINE
8
0
10
146.3661324
20
-125.0828468
11
155.3661324
21
-109.4943896
0
LINE
8
0
10
155.3661324
20
-109.4943896
11
140.6437006
21
-100.9943896
0
LINE
8
0
10
140.6437006
20
-100.9943896
11
131.6437006
21
-116.5828468
0
LINE
8
0
10
131.6437006
20
-116.5828468
11
146.3661324
21
-125.0828468
0
ENDSEC
0
EOF